<mxfile host="app.diagrams.net" modified="2021-02-06T11:43:07.238Z" agent="5.0 (Macintosh; Intel Mac OS X 11_2_0) AppleWebKit/537.36 (KHTML, like Gecko) Chrome/88.0.4324.146 Safari/537.36" etag="VWzmj-jJWorGDw4O9-WX" version="14.2.4" type="github">
  <diagram id="lvE0e8LnJ19-LFQP-Enc" name="ページ1">
    <mxGraphModel dx="1426" dy="794" grid="1" gridSize="10" guides="1" tooltips="1" connect="1" arrows="1" fold="1" page="1" pageScale="1" pageWidth="827" pageHeight="1169" math="0" shadow="0">
      <root>
        <mxCell id="0" />
        <mxCell id="1" parent="0" />
        <mxCell id="Ofbvej_dtTpPlcjieVRm-1" value="開始" style="strokeWidth=2;html=1;shape=mxgraph.flowchart.start_1;whiteSpace=wrap;" vertex="1" parent="1">
          <mxGeometry x="280" y="90" width="220" height="60" as="geometry" />
        </mxCell>
        <mxCell id="Ofbvej_dtTpPlcjieVRm-2" value="" style="endArrow=classic;html=1;exitX=0.5;exitY=1;exitDx=0;exitDy=0;exitPerimeter=0;" edge="1" parent="1" source="Ofbvej_dtTpPlcjieVRm-1">
          <mxGeometry width="50" height="50" relative="1" as="geometry">
            <mxPoint x="420" y="310" as="sourcePoint" />
            <mxPoint x="390" y="270" as="targetPoint" />
          </mxGeometry>
        </mxCell>
        <mxCell id="Ofbvej_dtTpPlcjieVRm-3" value="INPUT number" style="shape=parallelogram;html=1;strokeWidth=2;perimeter=parallelogramPerimeter;whiteSpace=wrap;rounded=1;arcSize=12;size=0.23;" vertex="1" parent="1">
          <mxGeometry x="280" y="270" width="220" height="60" as="geometry" />
        </mxCell>
        <mxCell id="Ofbvej_dtTpPlcjieVRm-4" value="newNumber←number" style="rounded=1;whiteSpace=wrap;html=1;absoluteArcSize=1;arcSize=14;strokeWidth=2;" vertex="1" parent="1">
          <mxGeometry x="280" y="450" width="220" height="100" as="geometry" />
        </mxCell>
        <mxCell id="Ofbvej_dtTpPlcjieVRm-5" value="" style="endArrow=classic;html=1;exitX=0.5;exitY=1;exitDx=0;exitDy=0;exitPerimeter=0;" edge="1" parent="1">
          <mxGeometry width="50" height="50" relative="1" as="geometry">
            <mxPoint x="389.5" y="330" as="sourcePoint" />
            <mxPoint x="389.5" y="450" as="targetPoint" />
          </mxGeometry>
        </mxCell>
        <mxCell id="Ofbvej_dtTpPlcjieVRm-6" value="" style="endArrow=classic;html=1;exitX=0.5;exitY=1;exitDx=0;exitDy=0;exitPerimeter=0;" edge="1" parent="1">
          <mxGeometry width="50" height="50" relative="1" as="geometry">
            <mxPoint x="389.5" y="550" as="sourcePoint" />
            <mxPoint x="389.5" y="670" as="targetPoint" />
          </mxGeometry>
        </mxCell>
        <mxCell id="Ofbvej_dtTpPlcjieVRm-8" value="PRINT newNumber" style="shape=parallelogram;html=1;strokeWidth=2;perimeter=parallelogramPerimeter;whiteSpace=wrap;rounded=1;arcSize=12;size=0.23;" vertex="1" parent="1">
          <mxGeometry x="280" y="670" width="220" height="60" as="geometry" />
        </mxCell>
        <mxCell id="Ofbvej_dtTpPlcjieVRm-9" value="" style="endArrow=classic;html=1;exitX=0.5;exitY=1;exitDx=0;exitDy=0;exitPerimeter=0;" edge="1" parent="1">
          <mxGeometry width="50" height="50" relative="1" as="geometry">
            <mxPoint x="390" y="730" as="sourcePoint" />
            <mxPoint x="390" y="850" as="targetPoint" />
          </mxGeometry>
        </mxCell>
        <mxCell id="Ofbvej_dtTpPlcjieVRm-10" value="終了" style="strokeWidth=2;html=1;shape=mxgraph.flowchart.start_1;whiteSpace=wrap;" vertex="1" parent="1">
          <mxGeometry x="280" y="850" width="220" height="60" as="geometry" />
        </mxCell>
        <mxCell id="Ofbvej_dtTpPlcjieVRm-11" value="変数定義&lt;br&gt;&lt;br&gt;number: 入力値" style="rounded=1;whiteSpace=wrap;html=1;absoluteArcSize=1;arcSize=14;strokeWidth=2;align=left;" vertex="1" parent="1">
          <mxGeometry x="610" y="70" width="210" height="100" as="geometry" />
        </mxCell>
      </root>
    </mxGraphModel>
  </diagram>
</mxfile>
